<svg xmlns="http://www.w3.org/2000/svg" version="1.1" xmlns:xlink="http://www.w3.org/1999/xlink" xmlns:svgjs="http://svgjs.dev/svgjs" width="1000" height="1000" viewBox="0 0 1000 1000"><rect width="1000" height="1000" fill="#ffffff"></rect><g transform="matrix(0.7,0,0,0.7,149.57575757575756,385.4311053723947)"><svg viewBox="0 0 396 130" data-background-color="#ffffff" preserveAspectRatio="xMidYMid meet" height="328" width="1000" xmlns="http://www.w3.org/2000/svg" xmlns:xlink="http://www.w3.org/1999/xlink"><g id="tight-bounds" transform="matrix(1,0,0,1,0.2400000000000091,-0.1308523449970096)"><svg viewBox="0 0 395.52 130.26170468999402" height="130.26170468999402" width="395.52"><g><svg viewBox="0 0 395.52 130.26170468999402" height="130.26170468999402" width="395.52"><g><svg viewBox="0 0 395.52 130.26170468999402" height="130.26170468999402" width="395.52"><g><svg viewBox="0 0 395.52 130.26170468999402" height="130.26170468999402" width="395.52"><g><svg viewBox="0 0 395.52 130.26170468999402" height="130.26170468999402" width="395.52"><g id="textblocktransform"><svg viewBox="0 0 395.52 130.26170468999402" height="130.26170468999402" width="395.52" id="textblock"><g><svg viewBox="0 0 395.52 130.26170468999402" height="130.26170468999402" width="395.52"><g transform="matrix(1,0,0,1,0,0)"><svg width="395.52" viewBox="0.73 -37.7 122.35 40.30666666666667" height="130.26170468999402" data-palette-color="#ff851b"><path d="M17.97-0.24L17.97-0.24Q17.68-0.24 17.48-0.12 17.29 0 17.04 0.1L17.04 0.1Q16.65 0.34 16.67 0.46 16.7 0.59 16.55 0.59L16.55 0.59Q16.11 0.59 15.7 0.44 15.28 0.29 14.84 0.29L14.84 0.29Q14.45 0.1 14.11-0.12 13.77-0.34 13.43-0.68L13.43-0.68Q12.99-0.68 12.82-0.61 12.65-0.54 12.4-0.59L12.4-0.59Q11.77-0.83 11.23-1.29 10.69-1.76 10.01-2L10.01-2Q9.81-2.25 9.57-2.37 9.33-2.49 9.08-2.69L9.08-2.69Q8.64-2.88 7.79-3.42 6.93-3.96 5.98-4.57 5.03-5.18 4.2-5.76 3.37-6.35 3.03-6.69L3.03-6.69Q2.83-6.74 2.44-7.01 2.05-7.28 1.68-7.62 1.32-7.96 1.03-8.3 0.73-8.64 0.73-8.89L0.73-8.89Q0.73-9.13 0.98-9.3 1.22-9.47 1.32-9.72L1.32-9.72Q1.37-9.81 1.34-9.99 1.32-10.16 1.37-10.25L1.37-10.25Q1.61-10.64 1.64-10.86 1.66-11.08 1.71-11.28L1.71-11.28Q1.95-11.57 2.15-11.82 2.34-12.06 2.59-12.35L2.59-12.35Q2.54-12.89 2.78-13.13 3.03-13.38 3.32-13.62L3.32-13.62Q3.56-13.62 3.91-13.57 4.25-13.53 4.49-13.43L4.49-13.43Q4.98-13.18 4.98-13.11 4.98-13.04 5.08-12.94L5.08-12.94Q5.32-12.74 5.57-12.6 5.81-12.45 6.05-12.3L6.05-12.3Q6.59-11.91 7.15-11.52 7.71-11.13 8.3-10.74L8.3-10.74Q8.98-10.35 9.94-9.72 10.89-9.08 11.67-8.79L11.67-8.79Q11.77-9.08 11.77-9.57L11.77-9.57Q11.77-9.91 11.74-10.25 11.72-10.6 11.72-10.99L11.72-10.99Q11.72-11.52 11.62-12.06 11.52-12.6 11.43-13.09L11.43-13.09Q11.18-15.43 11.13-17.68L11.13-17.68Q11.08-18.36 11.04-18.99 10.99-19.63 10.99-20.31L10.99-20.31Q10.99-21.24 11.01-22.17 11.04-23.1 11.04-24.07L11.04-24.07Q11.04-24.9 11.08-25.73 11.13-26.56 11.13-27.39L11.13-27.39Q11.13-28.22 11.16-28.96 11.18-29.69 11.18-30.52L11.18-30.52Q11.18-31.74 11.16-33.2 11.13-34.67 11.28-35.89L11.28-35.89Q11.38-36.38 11.57-36.62L11.57-36.62Q12.45-36.57 12.99-36.55 13.53-36.52 14.21-36.52L14.21-36.52Q14.4-36.52 14.53-36.4 14.65-36.28 14.79-36.28L14.79-36.28Q14.99-36.28 15.11-36.35 15.23-36.43 15.43-36.43L15.43-36.43Q15.77-36.43 16.06-36.13L16.06-36.13Q16.6-36.28 16.89-36.18L16.89-36.18Q17.14-35.94 17.21-35.5 17.29-35.06 17.38-34.67L17.38-34.67Q17.38-34.23 17.41-33.98 17.43-33.74 17.43-33.5L17.43-33.5Q17.43-32.96 17.38-32.42 17.33-31.88 17.33-31.35L17.33-31.35Q17.33-30.71 17.41-30.08 17.48-29.44 17.48-28.81L17.48-28.81Q17.48-28.13 17.43-27.54 17.38-26.95 17.38-26.32L17.38-26.32Q17.38-25.83 17.41-25.39 17.43-24.95 17.43-24.51L17.43-24.51Q17.43-23.49 17.41-22.46 17.38-21.44 17.38-20.41L17.38-20.41Q17.38-20.17 17.41-19.82 17.43-19.48 17.38-19.19L17.38-19.19Q17.38-18.95 17.19-18.65L17.19-18.65Q17.29-17.04 17.36-15.43 17.43-13.82 17.53-12.21L17.53-12.21Q17.53-11.82 17.58-11.35 17.63-10.89 17.68-10.45L17.68-10.45Q17.77-9.91 17.77-9.38 17.77-8.84 17.82-8.3L17.82-8.3Q17.87-7.62 17.94-6.96 18.02-6.3 18.07-5.62L18.07-5.62Q18.12-5.08 18.21-4.54 18.31-4 18.31-3.47L18.31-3.47Q18.31-2.78 18.26-1.83 18.21-0.88 17.97-0.24ZM31.98-33.2L31.98-33.2Q31.98-32.76 31.69-32.54 31.39-32.32 31.15-31.98L31.15-31.98Q30.66-31.54 30.3-31.08 29.93-30.62 29.44-30.18L29.44-30.18Q29.25-29.98 28.9-29.66 28.56-29.35 28.2-29.03 27.83-28.71 27.46-28.47 27.1-28.22 26.85-28.22L26.85-28.22Q26.46-28.22 25.85-28.49 25.24-28.76 24.8-28.86L24.8-28.86Q24.46-28.91 24.19-28.93 23.92-28.96 23.68-29.2L23.68-29.2Q22.8-29.39 22.56-29.81 22.31-30.22 22.02-30.66L22.02-30.66Q22.02-30.86 22.17-30.91 22.31-30.96 22.41-31.1L22.41-31.1Q22.9-31.74 23.24-32.15 23.58-32.57 24.02-33.01L24.02-33.01Q24.85-33.74 25.61-34.52 26.36-35.3 27.19-35.99L27.19-35.99Q27.59-36.04 27.78-36.28 27.98-36.52 28.37-36.52L28.37-36.52Q28.76-36.52 29.03-36.28 29.29-36.04 29.51-35.72 29.73-35.4 29.95-35.08 30.17-34.77 30.47-34.62L30.47-34.62Q30.81-34.38 31.39-33.98 31.98-33.59 31.98-33.2ZM25.29-24.12L25.29-24.12Q25.63-23.93 25.8-23.61 25.97-23.29 26.32-23.14L26.32-23.14Q26.61-23 26.95-23 27.29-23 27.54-22.9L27.54-22.9Q27.73-22.8 27.83-22.66 27.93-22.51 28.02-22.36L28.02-22.36Q28.32-22.12 28.93-21.92 29.54-21.73 29.73-21.48L29.73-21.48Q30.08-21.04 30.25-20.36 30.42-19.68 30.52-18.92 30.61-18.16 30.66-17.41 30.71-16.65 30.81-16.11L30.81-16.11Q30.91-14.99 31.05-13.89 31.2-12.79 31.2-11.67L31.2-11.67Q31.2-10.55 31.1-9.38 31-8.2 31-7.08L31-7.08Q31-6.49 30.98-5.62 30.95-4.74 30.56-4.25L30.56-4.25Q30.52-4.05 30.52-3.56L30.52-3.56 30.52-2Q30.52-1.71 30.56-1.42 30.61-1.12 30.61-0.78L30.61-0.78Q30.61-0.24 30.32 0L30.32 0Q30.17-0.05 30-0.05 29.83-0.05 29.68-0.05L29.68-0.05Q29.15-0.05 28.9 0.15L28.9 0.15Q28.37 0.1 27.88 0.05 27.39 0 26.85 0L26.85 0Q26.02 0 25.05 0.24L25.05 0.24Q24.85-0.24 24.88-0.78 24.9-1.32 24.66-1.76L24.66-1.76Q24.61-1.9 24.58-2.03 24.56-2.15 24.56-2.29L24.56-2.29Q24.7-2.88 24.7-3.1 24.7-3.32 24.7-3.56L24.7-3.56Q24.7-4.25 24.66-4.96 24.61-5.66 24.7-6.35L24.7-6.35Q24.7-6.59 24.78-6.79 24.85-6.98 24.85-7.23L24.85-7.23Q24.85-7.47 24.75-7.57 24.66-7.67 24.66-7.81L24.66-7.81Q24.66-7.96 24.68-8.3 24.7-8.64 24.8-8.74L24.8-8.74Q24.8-9.13 24.83-9.5 24.85-9.86 24.85-10.21L24.85-10.21Q24.85-10.99 24.8-11.77 24.75-12.55 24.75-13.28L24.75-13.28Q24.75-13.62 24.7-13.72 24.66-13.82 24.61-13.87 24.56-13.92 24.46-13.94 24.36-13.96 24.31-14.11L24.31-14.11Q24.51-16.26 24.17-18.41 23.83-20.56 23.83-22.75L23.83-22.75Q23.83-23.1 23.92-23.27 24.02-23.44 24.17-23.54 24.31-23.63 24.44-23.75 24.56-23.88 24.61-24.12L24.61-24.12Q25-24.02 25.29-24.12ZM58.69-4.69L58.69-4.69Q58.64-3.96 59-3.59 59.37-3.22 59.61-2.69L59.61-2.69Q59.52-2 59.76-1.61L59.76-1.61Q59.61-1.32 59.47-0.95 59.32-0.59 59.03-0.34L59.03-0.34Q58.25 0 58.1 0.24 57.95 0.49 57.51 0.49L57.51 0.49Q57.27 0.73 56.98 1 56.68 1.27 56.44 1.51L56.44 1.51Q56.2 1.42 56.1 1.27 56 1.12 55.81 0.88L55.81 0.88Q55.32 0.73 54.93 0.37 54.54 0 54.24-0.46 53.95-0.93 53.68-1.44 53.41-1.95 53.22-2.39L53.22-2.39Q52.53-3.66 51.83-4.96 51.12-6.25 50.39-7.52L50.39-7.52Q50-8.15 49.63-8.81 49.26-9.47 48.87-10.16L48.87-10.16Q48.77-10.25 48.68-10.38 48.58-10.5 48.48-10.64L48.48-10.64Q48.14-11.13 47.97-11.74 47.8-12.35 47.26-12.74L47.26-12.74Q46.33-12.84 45.58-12.48 44.82-12.11 44.23-11.52L44.23-11.52Q44.28-11.18 44.28-10.89 44.28-10.6 44.28-10.3L44.28-10.3Q44.28-9.18 44.18-8.15 44.09-7.13 44.09-6.01L44.09-6.01Q44.09-5.52 44.14-5 44.18-4.49 44.28-4L44.28-4Q44.14-3.47 44.14-2.83L44.14-2.83Q44.14-2.49 44.21-2.2 44.28-1.9 44.28-1.56L44.28-1.56Q44.28-1.07 43.96-0.9 43.65-0.73 43.75-0.29L43.75-0.29Q43.16-0.05 42.62 0.2 42.08 0.44 41.5 0.54L41.5 0.54Q41.25 0.59 41.01 0.56 40.77 0.54 40.57 0.63L40.57 0.63Q40.33 0.73 40.18 1 40.03 1.27 39.79 1.27L39.79 1.27Q39.5 1.27 39.45 1.05 39.4 0.83 39.25 0.68L39.25 0.68Q39.01 0.59 38.86 0.59 38.72 0.59 38.57 0.44L38.57 0.44Q38.62 0 38.37-0.22 38.13-0.44 38.13-1.12L38.13-1.12Q38.13-1.66 38.2-2.15 38.28-2.64 38.28-3.17L38.28-3.17Q38.28-3.61 38.15-3.98 38.03-4.35 37.93-4.79L37.93-4.79Q37.89-4.98 37.93-5.18 37.98-5.37 37.98-5.57L37.98-5.57Q37.98-6.45 37.91-7.35 37.84-8.25 37.84-9.13L37.84-9.13Q37.84-9.47 37.84-9.77 37.84-10.06 37.89-10.35L37.89-10.35Q37.98-10.64 38.06-10.84 38.13-11.04 38.13-11.33L38.13-11.33Q38.13-12.26 37.93-13.16 37.74-14.06 37.74-14.94L37.74-14.94Q37.74-15.43 37.76-15.94 37.79-16.46 37.79-16.94L37.79-16.94Q37.79-18.36 37.74-19.73 37.69-21.09 37.69-22.46L37.69-22.46Q37.69-23.44 37.74-24.39 37.79-25.34 37.79-26.32L37.79-26.32Q37.79-27.54 37.69-28.74 37.59-29.93 37.59-31.2L37.59-31.2Q37.59-31.64 37.54-31.79 37.5-31.93 37.4-31.96 37.3-31.98 37.18-32.01 37.06-32.03 36.96-32.18L36.96-32.18Q36.96-32.47 37.2-32.59 37.45-32.71 37.45-33.4L37.45-33.4Q37.45-33.79 37.37-34.18 37.3-34.57 37.3-34.96L37.3-34.96Q37.3-35.55 37.54-36.13 37.79-36.72 37.98-37.26L37.98-37.26Q38.57-37.3 38.79-37.26 39.01-37.21 39.25-37.3L39.25-37.3Q39.4-36.77 39.89-36.74 40.38-36.72 40.77-36.62L40.77-36.62Q41.21-36.57 41.62-36.4 42.04-36.23 42.43-36.23L42.43-36.23Q42.52-35.94 42.84-35.82 43.16-35.69 43.5-35.6L43.5-35.6Q43.89-35.64 44.11-35.94 44.33-36.23 44.72-36.23L44.72-36.23Q45.01-36.23 45.41-35.82 45.8-35.4 45.99-35.16L45.99-35.16Q46.19-35.01 46.72-34.52 47.26-34.03 47.9-33.52 48.53-33.01 49.07-32.54 49.6-32.08 49.75-32.03L49.75-32.03Q51.75-30.03 53.49-28.39 55.22-26.76 57.27-25.44L57.27-25.44Q57.32-25.29 57.39-25.2 57.47-25.1 57.56-24.95L57.56-24.95Q57.56-24.56 57.42-24.37 57.27-24.17 57.27-23.88L57.27-23.88Q57.27-23.73 57.34-23.58 57.42-23.44 57.42-23.29L57.42-23.29Q57.47-23.1 57.44-22.92 57.42-22.75 57.42-22.56L57.42-22.56Q57.42-22.07 57.73-21.68 58.05-21.29 58.05-20.8L58.05-20.8Q57.95-20.36 57.66-20.26 57.37-20.17 57.17-20.02L57.17-20.02Q57.08-19.92 57-19.78 56.93-19.63 56.83-19.53L56.83-19.53Q55.76-19.04 55.27-18.63 54.78-18.21 54.24-17.82L54.24-17.82Q54.1-17.72 53.75-17.5 53.41-17.29 53.07-17.07 52.73-16.85 52.46-16.6 52.19-16.36 52.19-16.21L52.19-16.21Q52.19-15.87 52.61-15.26 53.02-14.65 53.22-14.31L53.22-14.31Q53.75-13.43 54.19-12.57 54.63-11.72 55.17-10.89L55.17-10.89Q56.15-9.38 57-7.81 57.86-6.25 58.69-4.69ZM50.73-22.85L50.73-22.85Q49.6-24.27 48.31-25.42 47.02-26.56 45.84-27.83L45.84-27.83 45.31-27.93Q45.01-28.42 44.65-28.78 44.28-29.15 43.89-29.54L43.89-29.54Q43.94-29 43.94-28.52 43.94-28.03 43.94-27.49L43.94-27.49Q43.94-25.93 43.87-24.44 43.79-22.95 43.79-21.44L43.79-21.44Q43.79-19.92 43.94-18.55L43.94-18.55Q44.97-18.55 45.8-19.14L45.8-19.14Q46.14-19.38 46.43-19.65 46.72-19.92 47.07-20.17L47.07-20.17Q47.46-20.41 47.97-20.75 48.48-21.09 48.99-21.44 49.51-21.78 49.97-22.14 50.43-22.51 50.73-22.85ZM72.26-37.01L72.36-36.96Q72.6-36.08 72.84-35.23 73.09-34.38 73.43-33.54L73.43-33.54Q74.16-33.45 74.33-33.4 74.5-33.35 74.75-33.25L74.75-33.25Q75.29-31.98 75.41-30.54 75.53-29.1 75.77-27.73L75.77-27.73Q76.7-26.51 77.12-25.12 77.53-23.73 78.07-22.31L78.07-22.31Q78.22-21.83 78.26-21.7 78.31-21.58 78.31-21.48L78.31-21.48Q78.61-20.65 78.9-19.78 79.19-18.9 79.53-18.07L79.53-18.07Q79.68-17.63 79.85-17.21 80.02-16.8 80.17-16.41L80.17-16.41Q80.31-15.92 80.44-15.41 80.56-14.89 80.71-14.4L80.71-14.4Q81.05-13.43 81.44-12.45 81.83-11.47 82.22-10.5L82.22-10.5Q82.37-10.16 82.78-8.98 83.2-7.81 83.64-6.52 84.07-5.22 84.44-4.13 84.81-3.03 84.81-2.78L84.81-2.78Q84.81-2.39 84.88-1.98 84.95-1.56 85-1.12L85-1.12Q84.81-0.63 84.51-0.59 84.22-0.54 83.98-0.63L83.98-0.63Q83.73-0.54 83.51-0.44 83.29-0.34 83.1-0.24L83.1-0.24Q82.95-0.2 82.85-0.1 82.76 0 82.61 0L82.61 0Q82.02 0 81.85 0.12 81.68 0.24 81.34 0.24L81.34 0.24Q80.9 0.1 80.78 0.22 80.66 0.34 80.56 0.39L80.56 0.39Q80.36 0.49 80.12 0.49 79.88 0.49 79.63 0.54L79.63 0.54Q79.53 0.34 79.46 0.15 79.39-0.05 79.24-0.29L79.24-0.29Q78.7-1.07 78.48-1.81 78.26-2.54 78.12-2.98L78.12-2.98Q77.87-3.52 77.7-4.05 77.53-4.59 77.29-5.13L77.29-5.13Q76.99-5.03 76.75-4.91 76.51-4.79 76.36-4.59L76.36-4.59Q75.77-4.59 75.77-4.44 75.77-4.3 75.68-4.15L75.68-4.15Q75.38-4.05 75.21-3.96 75.04-3.86 74.65-3.91L74.65-3.91Q74.41-3.66 74.16-3.49 73.92-3.32 73.53-3.27L73.53-3.27Q73.14-2.88 72.72-2.61 72.31-2.34 71.77-2.49L71.77-2.49Q71.09-2.34 70.4-2.22 69.72-2.1 69.04-2.1L69.04-2.1Q68.25-2.34 68.06-2.54 67.86-2.73 67.47-2.73L67.47-2.73Q67.52-3.42 67.18-3.66L67.18-3.66Q67.18-3.81 67.2-4.13 67.23-4.44 67.33-4.54L67.33-4.54Q67.96-4.83 68.06-5.18 68.16-5.52 68.6-5.62L68.6-5.62Q68.69-5.81 68.82-5.98 68.94-6.15 69.04-6.35L69.04-6.35Q69.28-6.45 69.45-6.49 69.62-6.54 69.72-6.79L69.72-6.79Q69.96-6.79 70.45-7.1 70.94-7.42 71.09-7.62L71.09-7.62Q71.48-7.76 71.57-7.89 71.67-8.01 71.82-8.11L71.82-8.11Q72.31-8.06 72.45-8.2L72.45-8.2Q72.84-8.01 73.33-8.01L73.33-8.01Q73.53-8.01 73.67-8.03 73.82-8.06 74.02-8.06L74.02-8.06Q74.41-8.45 75.02-8.57 75.63-8.69 76.02-9.08L76.02-9.08Q75.87-9.47 75.77-10.03 75.68-10.6 75.43-10.94L75.43-10.94Q75.33-11.57 75.11-12.16 74.89-12.74 74.75-13.28L74.75-13.28Q74.21-15.33 73.48-17.29 72.75-19.24 72.26-21.29L72.26-21.29Q72.16-21.53 72.04-21.8 71.92-22.07 71.82-22.31L71.82-22.31Q71.57-21.73 71.57-21.66 71.57-21.58 71.48-21.48L71.48-21.48Q71.43-21.24 71.38-21.07 71.33-20.9 71.23-20.65L71.23-20.65Q71.09-20.26 70.96-19.8 70.84-19.34 70.74-18.95L70.74-18.95Q70.5-18.12 70.31-17.21 70.11-16.31 69.87-15.43L69.87-15.43Q69.38-13.92 68.86-12.43 68.35-10.94 67.86-9.42L67.86-9.42Q67.77-8.74 67.64-8.37 67.52-8.01 67.4-7.64 67.28-7.28 67.2-6.93 67.13-6.59 67.13-6.4L67.13-6.4Q66.45-4.83 65.98-3.22 65.52-1.61 64.84-0.1L64.84-0.1Q64.64 0 64.49 0.15 64.35 0.29 64.15 0.29L64.15 0.29Q63.76 0.29 63.74 0.1 63.71-0.1 63.52-0.1L63.52-0.1Q63.32-0.1 63.18-0.02 63.03 0.05 62.88 0.15L62.88 0.15Q62.64 0.05 62.32 0.02 62 0 61.86-0.2L61.86-0.2Q61.52 0.05 61.17 0.05L61.17 0.05Q60.78 0.05 60.39-0.2L60.39-0.2Q60.1-0.1 59.81-0.1L59.81-0.1Q59.66-0.1 59.47-0.15 59.27-0.2 59.17-0.29L59.17-0.29Q59.12-0.49 59.12-0.68 59.12-0.88 59.12-1.12L59.12-1.12Q59.12-1.61 59.03-1.86L59.03-1.86Q59.9-4.35 60.73-6.91 61.56-9.47 62.39-12.11L62.39-12.11Q62.83-13.33 63.25-14.5 63.66-15.67 64.06-16.89L64.06-16.89Q64.25-17.58 64.4-18.19 64.54-18.8 64.79-19.38L64.79-19.38Q65.18-20.65 65.59-21.95 66.01-23.24 66.35-24.51L66.35-24.51Q66.55-24.66 66.59-24.85 66.64-25.05 66.74-25.29L66.74-25.29 66.69-25.93Q67.03-26.42 67.16-26.78 67.28-27.15 67.33-27.54L67.33-27.54Q67.57-28.13 67.77-28.81 67.96-29.49 68.06-30.08L68.06-30.08Q68.16-30.86 68.18-31.86 68.21-32.86 68.45-33.54L68.45-33.54Q68.55-33.74 68.62-33.81 68.69-33.89 68.69-34.13L68.69-34.13Q68.79-34.23 68.91-34.35 69.04-34.47 69.08-34.62L69.08-34.62Q69.33-35.01 69.26-35.3 69.18-35.6 69.18-35.94L69.18-35.94Q69.62-36.18 69.57-36.38 69.52-36.57 69.52-36.77L69.52-36.77Q69.52-37.01 69.84-37.23 70.16-37.45 70.26-37.7L70.26-37.7Q70.55-37.65 70.84-37.62 71.14-37.6 71.43-37.65L71.43-37.65Q71.77-37.01 72.26-37.01L72.26-37.01ZM103.75-36.43L103.75-36.43Q104.53-36.52 104.95-36.3 105.36-36.08 105.8-36.04L105.8-36.04Q106.04-35.99 106.31-36.01 106.58-36.04 106.87-36.04L106.87-36.04Q107.51-36.04 107.88-35.89 108.24-35.74 108.63-35.25L108.63-35.25Q108.73-35.16 108.9-34.99 109.07-34.81 109.07-34.67L109.07-34.67Q109.07-34.28 108.88-33.98 108.68-33.69 108.68-33.15L108.68-33.15Q108.68-32.32 108.88-31.52 109.07-30.71 109.12-29.88L109.12-29.88Q109.37-26.86 109.39-23.8 109.41-20.75 109.41-17.77L109.41-17.77Q109.41-17.38 109.39-17.07 109.37-16.75 109.17-16.5L109.17-16.5 109.17-15.87Q109.12-14.6 109.22-13.31 109.32-12.01 109.32-10.74L109.32-10.74Q109.32-9.62 109.19-8.5 109.07-7.37 109.07-6.2L109.07-6.2Q109.07-5.13 109.22-4.1 109.37-3.08 109.37-2L109.37-2Q109.12-1.56 109.07-1.32 109.02-1.07 108.88-0.88L108.88-0.88Q108.73-0.78 108.56-0.83 108.39-0.88 108.29-0.73L108.29-0.73Q108.05-0.44 107.95-0.05 107.85 0.34 107.46 0.59L107.46 0.59Q107.36 1.27 106.95 1.64 106.53 2 106.34 2.59L106.34 2.59Q105.75 2.64 105.53 2.54 105.31 2.44 105.07 2.34L105.07 2.34Q105.02 1.51 105.09 1.15 105.17 0.78 105.17 0.39L105.17 0.39Q105.17-0.1 104.92-0.34 104.68-0.59 104.58-0.98L104.58-0.98Q104.04-1.32 103.85-1.44 103.65-1.56 103.51-1.76L103.51-1.76Q103.21-2.15 103.02-2.59 102.82-3.03 102.58-3.42L102.58-3.42Q101.89-4.54 101.19-5.71 100.48-6.88 99.65-8.01L99.65-8.01Q99.5-8.25 99.31-8.45 99.11-8.64 98.96-8.89L98.96-8.89Q98.13-10.21 97.4-11.57 96.67-12.94 95.69-14.16L95.69-14.16Q95.3-14.65 95.11-15.26 94.91-15.87 94.52-16.31L94.52-16.31Q94.47-16.06 94.47-15.77 94.47-15.48 94.47-15.23L94.47-15.23Q94.47-13.57 94.55-11.94 94.62-10.3 94.62-8.64L94.62-8.64Q94.62-8.3 94.55-8.03 94.47-7.76 94.47-7.42L94.47-7.42Q94.47-6.93 94.52-6.49 94.57-6.05 94.57-5.62L94.57-5.62Q94.57-5.08 94.55-4.59 94.52-4.1 94.47-3.61L94.47-3.61Q94.37-2.98 94.23-2.42 94.08-1.86 94.08-1.27L94.08-1.27Q94.08-0.93 94.16-0.63 94.23-0.34 94.23-0.1L94.23-0.1Q93.89 0.44 93.37 0.44 92.86 0.44 92.52 0.83L92.52 0.83Q92.23 0.78 92.06 0.88 91.88 0.98 91.74 0.98L91.74 0.98Q91.54 0.98 91.42 0.93 91.3 0.88 91.15 0.88L91.15 0.88Q90.91 0.88 90.66 1.12 90.42 1.37 90.18 1.37L90.18 1.37Q90.03 1.37 89.66 1.17 89.3 0.98 88.88 0.71 88.47 0.44 88.12 0.17 87.78-0.1 87.78-0.24L87.78-0.24Q87.73-0.49 87.73-0.93L87.73-0.93Q87.73-1.51 87.81-2.08 87.88-2.64 87.98-3.22L87.98-3.22Q88.12-4.88 88.12-6.52 88.12-8.15 88.12-9.81L88.12-9.81Q88.12-10.5 88.15-11.18 88.17-11.87 88.17-12.55L88.17-12.55Q88.17-14.16 88.05-15.8 87.93-17.43 87.93-19.04L87.93-19.04Q87.93-20.17 88.03-21.26 88.12-22.36 88.12-23.44L88.12-23.44Q88.12-24.27 88.08-25.05 88.03-25.83 88.03-26.66L88.03-26.66Q87.98-27.2 88.03-27.81 88.08-28.42 88.08-28.96L88.08-28.96Q88.08-29.59 87.91-30.15 87.73-30.71 87.73-31.2L87.73-31.2Q87.73-31.49 87.86-31.76 87.98-32.03 87.98-32.32L87.98-32.32Q87.98-32.71 87.86-33.11 87.73-33.5 87.73-33.89L87.73-33.89Q87.73-34.28 87.83-34.62 87.93-34.96 87.93-35.35L87.93-35.35Q88.61-35.69 89.15-35.69L89.15-35.69Q89.69-35.69 89.93-35.3L89.93-35.3Q89.93-34.42 90.03-33.96 90.13-33.5 90.18-33.01L90.18-33.01Q90.18-32.71 90.15-32.32 90.13-31.93 90.18-31.57 90.22-31.2 90.4-30.96 90.57-30.71 91.01-30.71L91.01-30.71Q91.1-30.47 91.25-30.27 91.4-30.08 91.45-29.79L91.45-29.79Q91.74-29.98 91.79-30.32 91.84-30.66 91.79-30.96L91.79-30.96Q92.03-30.86 92.23-30.88 92.42-30.91 92.62-30.81L92.62-30.81Q92.71-30.13 92.86-29.61 93.01-29.1 92.96-28.42L92.96-28.42Q93.94-27.69 94.64-26.34 95.35-25 95.99-23.93L95.99-23.93Q96.33-23.39 96.79-22.92 97.26-22.46 97.5-21.83L97.5-21.83Q97.89-21.58 98.13-21.19 98.38-20.8 98.57-20.41L98.57-20.41Q99.55-18.7 100.72-17.09 101.89-15.48 103.16-13.92L103.16-13.92Q103.21-14.26 103.21-14.58 103.21-14.89 103.21-15.23L103.21-15.23 103.16-19.63Q103.16-20.02 103.14-20.36 103.12-20.7 103.07-21.09L103.07-21.09Q102.97-22.36 103.02-23.58 103.07-24.8 103.02-26.07L103.02-26.07Q102.92-27.39 102.9-28.76 102.87-30.13 102.77-31.49L102.77-31.49Q102.72-32.32 102.68-33.15 102.63-33.98 102.63-34.81L102.63-34.81Q102.63-35.84 102.82-36.67L102.82-36.67Q102.92-36.77 103.04-36.84 103.16-36.91 103.36-36.91L103.36-36.91Q103.65-36.91 103.75-36.43ZM123.08-33.2L123.08-33.2Q123.08-32.76 122.79-32.54 122.5-32.32 122.25-31.98L122.25-31.98Q121.76-31.54 121.4-31.08 121.03-30.62 120.54-30.18L120.54-30.18Q120.35-29.98 120.01-29.66 119.67-29.35 119.3-29.03 118.93-28.71 118.57-28.47 118.2-28.22 117.96-28.22L117.96-28.22Q117.57-28.22 116.96-28.49 116.34-28.76 115.91-28.86L115.91-28.86Q115.56-28.91 115.3-28.93 115.03-28.96 114.78-29.2L114.78-29.2Q113.9-29.39 113.66-29.81 113.42-30.22 113.12-30.66L113.12-30.66Q113.12-30.86 113.27-30.91 113.42-30.96 113.51-31.1L113.51-31.1Q114-31.74 114.34-32.15 114.68-32.57 115.12-33.01L115.12-33.01Q115.95-33.74 116.71-34.52 117.47-35.3 118.3-35.99L118.3-35.99Q118.69-36.04 118.88-36.28 119.08-36.52 119.47-36.52L119.47-36.52Q119.86-36.52 120.13-36.28 120.4-36.04 120.62-35.72 120.84-35.4 121.06-35.08 121.28-34.77 121.57-34.62L121.57-34.62Q121.91-34.38 122.5-33.98 123.08-33.59 123.08-33.2ZM116.39-24.12L116.39-24.12Q116.74-23.93 116.91-23.61 117.08-23.29 117.42-23.14L117.42-23.14Q117.71-23 118.05-23 118.4-23 118.64-22.9L118.64-22.9Q118.84-22.8 118.93-22.66 119.03-22.51 119.13-22.36L119.13-22.36Q119.42-22.12 120.03-21.92 120.64-21.73 120.84-21.48L120.84-21.48Q121.18-21.04 121.35-20.36 121.52-19.68 121.62-18.92 121.72-18.16 121.76-17.41 121.81-16.65 121.91-16.11L121.91-16.11Q122.01-14.99 122.16-13.89 122.3-12.79 122.3-11.67L122.3-11.67Q122.3-10.55 122.2-9.38 122.11-8.2 122.11-7.08L122.11-7.08Q122.11-6.49 122.08-5.62 122.06-4.74 121.67-4.25L121.67-4.25Q121.62-4.05 121.62-3.56L121.62-3.56 121.62-2Q121.62-1.71 121.67-1.42 121.72-1.12 121.72-0.78L121.72-0.78Q121.72-0.24 121.42 0L121.42 0Q121.28-0.05 121.11-0.05 120.93-0.05 120.79-0.05L120.79-0.05Q120.25-0.05 120.01 0.15L120.01 0.15Q119.47 0.1 118.98 0.05 118.49 0 117.96 0L117.96 0Q117.13 0 116.15 0.24L116.15 0.24Q115.95-0.24 115.98-0.78 116-1.32 115.76-1.76L115.76-1.76Q115.71-1.9 115.69-2.03 115.66-2.15 115.66-2.29L115.66-2.29Q115.81-2.88 115.81-3.1 115.81-3.32 115.81-3.56L115.81-3.56Q115.81-4.25 115.76-4.96 115.71-5.66 115.81-6.35L115.81-6.35Q115.81-6.59 115.88-6.79 115.95-6.98 115.95-7.23L115.95-7.23Q115.95-7.47 115.86-7.57 115.76-7.67 115.76-7.81L115.76-7.81Q115.76-7.96 115.78-8.3 115.81-8.64 115.91-8.74L115.91-8.74Q115.91-9.13 115.93-9.5 115.95-9.86 115.95-10.21L115.95-10.21Q115.95-10.99 115.91-11.77 115.86-12.55 115.86-13.28L115.86-13.28Q115.86-13.62 115.81-13.72 115.76-13.82 115.71-13.87 115.66-13.92 115.56-13.94 115.47-13.96 115.42-14.11L115.42-14.11Q115.61-16.26 115.27-18.41 114.93-20.56 114.93-22.75L114.93-22.75Q114.93-23.1 115.03-23.27 115.12-23.44 115.27-23.54 115.42-23.63 115.54-23.75 115.66-23.88 115.71-24.12L115.71-24.12Q116.1-24.02 116.39-24.12Z" opacity="1" transform="matrix(1,0,0,1,0,0)" fill="#000000" class="wordmark-text-0" data-fill-palette-color="primary" id="text-0"></path></svg></g></svg></g></svg></g></svg></g></svg></g></svg></g></svg></g><defs></defs></svg><rect width="395.52" height="130.26170468999402" fill="none" stroke="none" visibility="hidden"></rect></g></svg></g></svg>