<svg xmlns="http://www.w3.org/2000/svg" version="1.1" xmlns:xlink="http://www.w3.org/1999/xlink" xmlns:svgjs="http://svgjs.dev/svgjs" width="1000" height="1000" viewBox="0 0 1000 1000"><rect width="1000" height="1000" fill="#ffffff"></rect><g transform="matrix(0.7,0,0,0.7,149.57575757575756,396.1016223409795)"><svg viewBox="0 0 396 108" data-background-color="#ffffff" preserveAspectRatio="xMidYMid meet" height="272" width="1000" xmlns="http://www.w3.org/2000/svg" xmlns:xlink="http://www.w3.org/1999/xlink"><g id="tight-bounds" transform="matrix(1,0,0,1,0.2400000000000091,5.192425506357296)"><svg viewBox="0 0 395.52 102.88138295333675" height="102.88138295333675" width="395.52"><g><svg viewBox="0 0 395.52 102.88138295333675" height="102.88138295333675" width="395.52"><g><svg viewBox="0 0 395.52 102.88138295333675" height="102.88138295333675" width="395.52"><g><svg viewBox="0 0 581.10155164349 151.1542558389262" height="102.88138295333675" width="395.52"><g transform="matrix(1,0,0,1,185.58155164348995,2.661423221476525)"><svg viewBox="0 0 395.52 145.83140939597314" height="145.83140939597314" width="395.52"><g id="textblocktransform"><svg viewBox="0 0 395.52 145.83140939597314" height="145.83140939597314" width="395.52" id="textblock"><g><svg viewBox="0 0 395.52 145.83140939597314" height="145.83140939597314" width="395.52"><g transform="matrix(1,0,0,1,0,0)"><svg width="395.52" viewBox="0.2 -36.4 119.19 43.95" height="145.83140939597314" data-palette-color="#65647c"><path d="M13.95-36.4L13.95-7.05Q13.95-2.5 12.18 0.73 10.4 3.95 7.3 5.68 4.2 7.4 0.2 7.55L0.2 7.55 0.2 7.55 0.2 1.9Q3.65 1.7 5.88-0.43 8.1-2.55 8.1-7.2L8.1-7.2 8.1-36.4 13.95-36.4ZM22.8 0L22.8-21.15 28.4-21.15 28.4 0 22.8 0ZM22.55-28.75L22.55-28.75Q22.55-30.05 23.57-30.9 24.6-31.75 25.8-31.75L25.8-31.75Q27-31.75 27.95-30.9 28.9-30.05 28.9-28.75L28.9-28.75Q28.9-27.45 27.95-26.63 27-25.8 25.8-25.8L25.8-25.8Q24.6-25.8 23.57-26.65 22.55-27.5 22.55-28.75ZM36.1-21.15L41.15-21.15 41.65-15.15 41.45-16Q42.3-17.9 43.87-19.25 45.45-20.6 47.12-21.35 48.8-22.1 49.85-22.1L49.85-22.1 49.6-16.5Q47.2-16.7 45.42-15.65 43.65-14.6 42.65-12.83 41.65-11.05 41.65-9.1L41.65-9.1 41.65 0 36.1 0 36.1-21.15ZM63.84 0.55L63.84 0.55Q60.89 0.55 58.47-0.7 56.04-1.95 54.64-4.42 53.24-6.9 53.24-10.55L53.24-10.55Q53.24-14.15 54.72-16.73 56.19-19.3 58.62-20.7 61.04-22.1 63.89-22.1L63.89-22.1Q66.94-22.1 68.82-20.88 70.69-19.65 71.74-18.05L71.74-18.05 71.44-17.25 71.99-21.15 77.14-21.15 77.14 0 71.54 0 71.54-5.15 72.09-3.8Q71.94-3.5 71.32-2.83 70.69-2.15 69.64-1.35 68.59-0.55 67.17 0 65.74 0.55 63.84 0.55ZM65.39-4.05L65.39-4.05Q66.94-4.05 68.19-4.6 69.44-5.15 70.29-6.15 71.14-7.15 71.54-8.55L71.54-8.55 71.54-13.15Q71.14-14.45 70.24-15.43 69.34-16.4 68.07-16.95 66.79-17.5 65.24-17.5L65.24-17.5Q63.49-17.5 62.07-16.65 60.64-15.8 59.77-14.3 58.89-12.8 58.89-10.85L58.89-10.85Q58.89-8.95 59.79-7.4 60.69-5.85 62.19-4.95 63.69-4.05 65.39-4.05ZM84.84-21.15L89.89-21.15 90.34-16.6 90.19-17.2Q91.24-19.4 93.44-20.73 95.64-22.05 98.64-22.05L98.64-22.05Q101.64-22.05 103.59-20.3 105.54-18.55 105.59-15.7L105.59-15.7 105.59 0 99.99 0 99.99-13.7Q99.94-15.3 99.09-16.28 98.24-17.25 96.39-17.3L96.39-17.3Q94.69-17.3 93.34-16.28 91.99-15.25 91.22-13.48 90.44-11.7 90.44-9.4L90.44-9.4 90.44 0 84.84 0 84.84-21.15ZM113.29 0L113.29-21.15 118.89-21.15 118.89 0 113.29 0ZM113.04-28.75L113.04-28.75Q113.04-30.05 114.06-30.9 115.09-31.75 116.29-31.75L116.29-31.75Q117.49-31.75 118.44-30.9 119.39-30.05 119.39-28.75L119.39-28.75Q119.39-27.45 118.44-26.63 117.49-25.8 116.29-25.8L116.29-25.8Q115.09-25.8 114.06-26.65 113.04-27.5 113.04-28.75Z" opacity="1" transform="matrix(1,0,0,1,0,0)" fill="#000000" class="wordmark-text-0" data-fill-palette-color="primary" id="text-0"></path></svg></g></svg></g></svg></g></svg></g><g><svg viewBox="0 0 151.1542558389262 151.1542558389262" height="151.1542558389262" width="151.1542558389262"><g><svg xmlns="http://www.w3.org/2000/svg" data-name="Layer 1" viewBox="0 0 128 128" x="0" y="0" height="151.1542558389262" width="151.1542558389262" class="icon-icon-0" data-fill-palette-color="accent" id="icon-0"><path d="M29 28A14 14 0 1 0 15 14 14 14 0 0 0 29 28ZM29 4A10 10 0 1 1 19 14 10.011 10.011 0 0 1 29 4Z" fill="#000000" data-fill-palette-color="accent"></path><path d="M99 28A14 14 0 1 0 85 14 14 14 0 0 0 99 28ZM99 4A10 10 0 1 1 89 14 10.011 10.011 0 0 1 99 4Z" fill="#000000" data-fill-palette-color="accent"></path><path d="M58.072 55.6a5.337 5.337 0 0 0-0.395 0.654l-14.224-15.05a2 2 0 1 0-2.906 2.748L48 51.838V68h4V56.07l7.469 7.903a5.34 5.34 0 0 0 3.606 1.998 8.914 8.914 0 0 0 1.85 0 5.34 5.34 0 0 0 3.606-1.998L76 56.07V68h4V51.838l7.453-7.886a2 2 0 0 0-2.906-2.748S65.457 61.408 65.412 61.468a1.309 1.309 0 0 1-1.895 0.212l-2.032-1.757a1.436 1.436 0 0 1-0.251-1.869l22.719-24.701c0.04-0.044 0.069-0.093 0.105-0.139a14.02 14.02 0 0 1 5.983-3.625 18.106 18.106 0 0 1-3.724-2.832 18.105 18.105 0 0 0-6.191 4.85L64 49.139 46.99 30.646a1.999 1.999 0 1 0-2.943 2.707L61.283 52.093A44.675 44.675 0 0 0 58.072 55.6Z" fill="#000000" data-fill-palette-color="accent"></path><circle cx="16" cy="118" r="2.0" fill="#000000" data-fill-palette-color="accent"></circle><circle cx="28" cy="118" r="2.0" fill="#000000" data-fill-palette-color="accent"></circle><circle cx="40" cy="118" r="2.0" fill="#000000" data-fill-palette-color="accent"></circle><circle cx="52" cy="118" r="2.0" fill="#000000" data-fill-palette-color="accent"></circle><circle cx="64" cy="118" r="2.0" fill="#000000" data-fill-palette-color="accent"></circle><circle cx="76" cy="118" r="2.0" fill="#000000" data-fill-palette-color="accent"></circle><circle cx="88" cy="118" r="2.0" fill="#000000" data-fill-palette-color="accent"></circle><circle cx="100" cy="118" r="2.0" fill="#000000" data-fill-palette-color="accent"></circle><circle cx="112" cy="118" r="2.0" fill="#000000" data-fill-palette-color="accent"></circle><path d="M107.959 29.589A14.081 14.081 0 0 1 118 43.065V68h4V43.065a18.05 18.05 0 0 0-10.317-16.308A18.106 18.106 0 0 1 107.959 29.589Z" fill="#000000" data-fill-palette-color="accent"></path><path d="M10 43.065A14.081 14.081 0 0 1 20.041 29.589a18.105 18.105 0 0 1-3.724-2.832A18.05 18.05 0 0 0 6 43.065V68h4Z" fill="#000000" data-fill-palette-color="accent"></path><path d="M122 80a2 2 0 0 0 0 4h4a2 2 0 0 0 2-2V75.828A3.921 3.921 0 0 0 124 72H4a3.921 3.921 0 0 0-4 3.828V82a2 2 0 0 0 2 2H6a2 2 0 0 0 0-4H4V76l10.277 0.001A1.979 1.979 0 0 0 14 77v31H4a4.004 4.004 0 0 0-4 4v14a2 2 0 0 0 2 2H126a2 2 0 0 0 2-2V112a4.004 4.004 0 0 0-4-4H114V76.013l10 0.002V80ZM100 96a2 2 0 1 1 2-2A2.003 2.003 0 0 1 100 96Zm-2-7.65A5.99 5.99 0 0 0 98 99.65V108H90V76.01l8 0.001ZM78 108V99.65A5.99 5.99 0 0 0 78 88.35V76.009l8 0.001V108Zm-12 0V76.008l8 0.001V88.35A5.99 5.99 0 0 0 74 99.65V108Zm-12 0V99.65A5.99 5.99 0 0 0 54 88.35V76.006l8 0.001V108Zm-12 0V76.005l8 0.001V88.35A5.99 5.99 0 0 0 50 99.65V108Zm-12 0V99.65A5.99 5.99 0 0 0 30 88.35V76.003l8 0.001V108ZM28 92a2 2 0 1 1-2 2A2.003 2.003 0 0 1 28 92Zm24 4a2 2 0 1 1 2-2A2.003 2.003 0 0 1 52 96Zm24 0a2 2 0 1 1 2-2A2.003 2.003 0 0 1 76 96ZM17.723 76.002L26 76.003V88.35A5.99 5.99 0 0 0 26 99.65V108H18V77A1.98 1.98 0 0 0 17.723 76.002ZM124 124H4V112H124Zm-14-16h-8V99.65A5.99 5.99 0 0 0 102 88.35V76.012l8 0.001Z" fill="#000000" data-fill-palette-color="accent"></path></svg></g></svg></g></svg></g></svg></g></svg></g><defs></defs></svg><rect width="395.52" height="102.88138295333675" fill="none" stroke="none" visibility="hidden"></rect></g></svg></g></svg>